<svg width="166" height="27" viewBox="0 0 166 27" xmlns="http://www.w3.org/2000/svg"><title>E49EB484-49BD-4950-98E1-2BD2A77CC8CA</title><g fill="#FFF" fill-rule="evenodd"><path d="M61.45 15.35c-.74.711-1.234 1.743-1.234 3.023 0 1.174.494 2.206 1.234 2.917.776.747 1.762 1.103 2.644 1.103a4.31 4.31 0 0 0 2.89-1.174c.6-.569 1.163-1.53 1.163-2.846 0-1.351-.529-2.276-1.128-2.917-.81-.853-1.762-1.174-2.855-1.174-1.022 0-1.903.285-2.714 1.068zm11.455 10.92H67.83v-1.92c-.776 1.138-2.186 2.454-4.97 2.454-2.326 0-4.018-.747-5.393-2.17C55.846 22.998 55 20.721 55 18.267c0-2.633.952-4.803 2.467-6.261 1.375-1.316 3.313-2.135 5.464-2.135 1.727 0 3.63.57 4.899 2.313V.338h5.075V26.27zM83.655 15.35c-.74.747-1.163 1.707-1.163 2.988 0 1.458.564 2.383 1.163 2.988.635.64 1.551 1.138 2.89 1.138 1.129 0 2.08-.391 2.82-1.138.74-.747 1.164-1.708 1.164-2.988s-.423-2.241-1.164-2.988c-.74-.747-1.691-1.139-2.855-1.139-1.163 0-2.114.392-2.855 1.139zm9.729 8.893c-1.41 1.423-3.807 2.561-6.874 2.561-3.066 0-5.463-1.138-6.873-2.561-1.586-1.6-2.361-3.877-2.361-5.905 0-2.028.775-4.304 2.361-5.905 1.41-1.423 3.807-2.562 6.873-2.562 3.067 0 5.464 1.139 6.874 2.562 1.586 1.6 2.361 3.877 2.361 5.905 0 2.028-.775 4.304-2.361 5.905zM111.782 15.42a5.066 5.066 0 0 0-3.313-1.209c-1.586 0-2.537.783-2.89 1.139-.67.676-1.163 1.707-1.163 2.988 0 1.174.423 2.17 1.057 2.846.776.853 1.939 1.28 3.067 1.28.88 0 2.08-.249 3.242-1.245v4.625c-1.339.747-2.608.96-4.018.96-2.643 0-4.652-.96-6.097-2.383-1.199-1.174-2.468-3.166-2.468-6.048 0-2.703 1.128-4.838 2.609-6.26 1.762-1.672 3.842-2.242 5.992-2.242 1.374 0 2.643.25 3.982.89v4.66M127.644 16.168c-.036-.142-.282-1.139-1.022-1.85-.564-.534-1.375-.89-2.397-.89-1.304 0-2.08.534-2.573 1.032-.388.427-.74.996-.881 1.708h6.873zm4.688 3.06h-11.738c0 .853.318 1.991.952 2.703.775.853 1.833.996 2.608.996.74 0 1.516-.143 2.045-.463.07-.035.67-.427 1.092-1.316l4.794.498c-.705 2.241-2.115 3.415-3.031 3.984-1.516.925-3.208 1.174-4.97 1.174-2.362 0-4.441-.427-6.274-2.276-1.375-1.388-2.362-3.487-2.362-6.12 0-2.276.811-4.624 2.397-6.26 1.903-1.92 4.265-2.277 6.027-2.277 1.763 0 4.3.32 6.239 2.384 1.868 1.992 2.22 4.482 2.22 6.438v.534zM136.561 10.405h5.076v1.885c1.55-1.992 3.383-2.312 4.864-2.312 1.374 0 3.172.25 4.511 1.6 1.48 1.495 1.586 3.38 1.586 4.661v10.032h-5.075v-8.147c0-1.031-.035-2.347-.846-3.166-.388-.391-1.022-.711-1.939-.711-1.057 0-1.727.427-2.114.854-.846.853-.987 1.992-.987 3.023v8.147h-5.076V10.405M162.82 14.531v11.74h-5.076V14.53h-1.762v-4.126h1.762V5.282h5.076v5.123h3.137v4.126h-3.137M0 22.16C0 10.493 9.478 1 21.128 1c2.706 0 5.344.502 7.835 1.507a2.099 2.099 0 0 1 1.167 2.72 2.093 2.093 0 0 1-2.715 1.169 16.911 16.911 0 0 0-6.287-1.204c-9.34 0-16.942 7.613-16.942 16.968a2.09 2.09 0 0 1-2.093 2.096A2.09 2.09 0 0 1 0 22.16zm38.069 0c0-2.997-.787-5.942-2.283-8.514a2.098 2.098 0 0 1 .76-2.867 2.09 2.09 0 0 1 2.863.762 21.227 21.227 0 0 1 2.846 10.619 2.09 2.09 0 0 1-2.093 2.096 2.096 2.096 0 0 1-2.093-2.096zM19.19 18.236a2.697 2.697 0 0 1 1.911-.797c.693 0 1.384.269 1.92.797a2.722 2.722 0 0 1 0 3.837 2.703 2.703 0 0 1-3.83 0 2.706 2.706 0 0 1 0-3.837zm-2.888-2.235c-2.11 2.434-2.007 6.211.224 8.54a6.298 6.298 0 0 0 4.575 1.958 6.308 6.308 0 0 0 4.48-1.862 6.304 6.304 0 0 0 1.306-1.897L35.06 6.872a.524.524 0 0 0-.7-.7l-15.844 8.184A6.407 6.407 0 0 0 16.302 16z"/></g></svg>