<?xml version="1.0" encoding="utf-8"?>
<svg xmlns="http://www.w3.org/2000/svg">
<symbol id="book" viewBox="0 0 24 24"><path d="M5.495 2H22V0H5a3 3 0 0 0-3 3v18a3 3 0 0 0 3 3h17V4H5.495c-1.376 0-1.376-2 0-2zM6 6h7v7l2-2 2 2V6h3v16H6V6z"/>
</symbol>
<symbol id="docent-logo-f-n-l-1" viewBox="0 0 166 27"><title>E49EB484-49BD-4950-98E1-2BD2A77CC8CA</title><g fill="#FFF" fill-rule="evenodd"><path d="M61.45 15.35c-.74.711-1.234 1.743-1.234 3.023 0 1.174.494 2.206 1.234 2.917.776.747 1.762 1.103 2.644 1.103a4.31 4.31 0 0 0 2.89-1.174c.6-.569 1.163-1.53 1.163-2.846 0-1.351-.529-2.276-1.128-2.917-.81-.853-1.762-1.174-2.855-1.174-1.022 0-1.903.285-2.714 1.068zm11.455 10.92H67.83v-1.92c-.776 1.138-2.186 2.454-4.97 2.454-2.326 0-4.018-.747-5.393-2.17C55.846 22.998 55 20.721 55 18.267c0-2.633.952-4.803 2.467-6.261 1.375-1.316 3.313-2.135 5.464-2.135 1.727 0 3.63.57 4.899 2.313V.338h5.075V26.27zM83.655 15.35c-.74.747-1.163 1.707-1.163 2.988 0 1.458.564 2.383 1.163 2.988.635.64 1.551 1.138 2.89 1.138 1.129 0 2.08-.391 2.82-1.138.74-.747 1.164-1.708 1.164-2.988s-.423-2.241-1.164-2.988c-.74-.747-1.691-1.139-2.855-1.139-1.163 0-2.114.392-2.855 1.139zm9.729 8.893c-1.41 1.423-3.807 2.561-6.874 2.561-3.066 0-5.463-1.138-6.873-2.561-1.586-1.6-2.361-3.877-2.361-5.905 0-2.028.775-4.304 2.361-5.905 1.41-1.423 3.807-2.562 6.873-2.562 3.067 0 5.464 1.139 6.874 2.562 1.586 1.6 2.361 3.877 2.361 5.905 0 2.028-.775 4.304-2.361 5.905zM111.782 15.42a5.066 5.066 0 0 0-3.313-1.209c-1.586 0-2.537.783-2.89 1.139-.67.676-1.163 1.707-1.163 2.988 0 1.174.423 2.17 1.057 2.846.776.853 1.939 1.28 3.067 1.28.88 0 2.08-.249 3.242-1.245v4.625c-1.339.747-2.608.96-4.018.96-2.643 0-4.652-.96-6.097-2.383-1.199-1.174-2.468-3.166-2.468-6.048 0-2.703 1.128-4.838 2.609-6.26 1.762-1.672 3.842-2.242 5.992-2.242 1.374 0 2.643.25 3.982.89v4.66M127.644 16.168c-.036-.142-.282-1.139-1.022-1.85-.564-.534-1.375-.89-2.397-.89-1.304 0-2.08.534-2.573 1.032-.388.427-.74.996-.881 1.708h6.873zm4.688 3.06h-11.738c0 .853.318 1.991.952 2.703.775.853 1.833.996 2.608.996.74 0 1.516-.143 2.045-.463.07-.035.67-.427 1.092-1.316l4.794.498c-.705 2.241-2.115 3.415-3.031 3.984-1.516.925-3.208 1.174-4.97 1.174-2.362 0-4.441-.427-6.274-2.276-1.375-1.388-2.362-3.487-2.362-6.12 0-2.276.811-4.624 2.397-6.26 1.903-1.92 4.265-2.277 6.027-2.277 1.763 0 4.3.32 6.239 2.384 1.868 1.992 2.22 4.482 2.22 6.438v.534zM136.561 10.405h5.076v1.885c1.55-1.992 3.383-2.312 4.864-2.312 1.374 0 3.172.25 4.511 1.6 1.48 1.495 1.586 3.38 1.586 4.661v10.032h-5.075v-8.147c0-1.031-.035-2.347-.846-3.166-.388-.391-1.022-.711-1.939-.711-1.057 0-1.727.427-2.114.854-.846.853-.987 1.992-.987 3.023v8.147h-5.076V10.405M162.82 14.531v11.74h-5.076V14.53h-1.762v-4.126h1.762V5.282h5.076v5.123h3.137v4.126h-3.137M0 22.16C0 10.493 9.478 1 21.128 1c2.706 0 5.344.502 7.835 1.507a2.099 2.099 0 0 1 1.167 2.72 2.093 2.093 0 0 1-2.715 1.169 16.911 16.911 0 0 0-6.287-1.204c-9.34 0-16.942 7.613-16.942 16.968a2.09 2.09 0 0 1-2.093 2.096A2.09 2.09 0 0 1 0 22.16zm38.069 0c0-2.997-.787-5.942-2.283-8.514a2.098 2.098 0 0 1 .76-2.867 2.09 2.09 0 0 1 2.863.762 21.227 21.227 0 0 1 2.846 10.619 2.09 2.09 0 0 1-2.093 2.096 2.096 2.096 0 0 1-2.093-2.096zM19.19 18.236a2.697 2.697 0 0 1 1.911-.797c.693 0 1.384.269 1.92.797a2.722 2.722 0 0 1 0 3.837 2.703 2.703 0 0 1-3.83 0 2.706 2.706 0 0 1 0-3.837zm-2.888-2.235c-2.11 2.434-2.007 6.211.224 8.54a6.298 6.298 0 0 0 4.575 1.958 6.308 6.308 0 0 0 4.48-1.862 6.304 6.304 0 0 0 1.306-1.897L35.06 6.872a.524.524 0 0 0-.7-.7l-15.844 8.184A6.407 6.407 0 0 0 16.302 16z"/></g>
</symbol>
<symbol id="sprite">
<symbol id="book" viewBox="0 0 24 24"><path d="M5.495 2H22V0H5a3 3 0 0 0-3 3v18a3 3 0 0 0 3 3h17V4H5.495c-1.376 0-1.376-2 0-2zM6 6h7v7l2-2 2 2V6h3v16H6V6z"/>
</symbol>
<symbol id="docent-logo-f-n-l-1" viewBox="0 0 166 27"><title>E49EB484-49BD-4950-98E1-2BD2A77CC8CA</title><g fill="#FFF" fill-rule="evenodd"><path d="M61.45 15.35c-.74.711-1.234 1.743-1.234 3.023 0 1.174.494 2.206 1.234 2.917.776.747 1.762 1.103 2.644 1.103a4.31 4.31 0 0 0 2.89-1.174c.6-.569 1.163-1.53 1.163-2.846 0-1.351-.529-2.276-1.128-2.917-.81-.853-1.762-1.174-2.855-1.174-1.022 0-1.903.285-2.714 1.068zm11.455 10.92H67.83v-1.92c-.776 1.138-2.186 2.454-4.97 2.454-2.326 0-4.018-.747-5.393-2.17C55.846 22.998 55 20.721 55 18.267c0-2.633.952-4.803 2.467-6.261 1.375-1.316 3.313-2.135 5.464-2.135 1.727 0 3.63.57 4.899 2.313V.338h5.075V26.27zM83.655 15.35c-.74.747-1.163 1.707-1.163 2.988 0 1.458.564 2.383 1.163 2.988.635.64 1.551 1.138 2.89 1.138 1.129 0 2.08-.391 2.82-1.138.74-.747 1.164-1.708 1.164-2.988s-.423-2.241-1.164-2.988c-.74-.747-1.691-1.139-2.855-1.139-1.163 0-2.114.392-2.855 1.139zm9.729 8.893c-1.41 1.423-3.807 2.561-6.874 2.561-3.066 0-5.463-1.138-6.873-2.561-1.586-1.6-2.361-3.877-2.361-5.905 0-2.028.775-4.304 2.361-5.905 1.41-1.423 3.807-2.562 6.873-2.562 3.067 0 5.464 1.139 6.874 2.562 1.586 1.6 2.361 3.877 2.361 5.905 0 2.028-.775 4.304-2.361 5.905zM111.782 15.42a5.066 5.066 0 0 0-3.313-1.209c-1.586 0-2.537.783-2.89 1.139-.67.676-1.163 1.707-1.163 2.988 0 1.174.423 2.17 1.057 2.846.776.853 1.939 1.28 3.067 1.28.88 0 2.08-.249 3.242-1.245v4.625c-1.339.747-2.608.96-4.018.96-2.643 0-4.652-.96-6.097-2.383-1.199-1.174-2.468-3.166-2.468-6.048 0-2.703 1.128-4.838 2.609-6.26 1.762-1.672 3.842-2.242 5.992-2.242 1.374 0 2.643.25 3.982.89v4.66M127.644 16.168c-.036-.142-.282-1.139-1.022-1.85-.564-.534-1.375-.89-2.397-.89-1.304 0-2.08.534-2.573 1.032-.388.427-.74.996-.881 1.708h6.873zm4.688 3.06h-11.738c0 .853.318 1.991.952 2.703.775.853 1.833.996 2.608.996.74 0 1.516-.143 2.045-.463.07-.035.67-.427 1.092-1.316l4.794.498c-.705 2.241-2.115 3.415-3.031 3.984-1.516.925-3.208 1.174-4.97 1.174-2.362 0-4.441-.427-6.274-2.276-1.375-1.388-2.362-3.487-2.362-6.12 0-2.276.811-4.624 2.397-6.26 1.903-1.92 4.265-2.277 6.027-2.277 1.763 0 4.3.32 6.239 2.384 1.868 1.992 2.22 4.482 2.22 6.438v.534zM136.561 10.405h5.076v1.885c1.55-1.992 3.383-2.312 4.864-2.312 1.374 0 3.172.25 4.511 1.6 1.48 1.495 1.586 3.38 1.586 4.661v10.032h-5.075v-8.147c0-1.031-.035-2.347-.846-3.166-.388-.391-1.022-.711-1.939-.711-1.057 0-1.727.427-2.114.854-.846.853-.987 1.992-.987 3.023v8.147h-5.076V10.405M162.82 14.531v11.74h-5.076V14.53h-1.762v-4.126h1.762V5.282h5.076v5.123h3.137v4.126h-3.137M0 22.16C0 10.493 9.478 1 21.128 1c2.706 0 5.344.502 7.835 1.507a2.099 2.099 0 0 1 1.167 2.72 2.093 2.093 0 0 1-2.715 1.169 16.911 16.911 0 0 0-6.287-1.204c-9.34 0-16.942 7.613-16.942 16.968a2.09 2.09 0 0 1-2.093 2.096A2.09 2.09 0 0 1 0 22.16zm38.069 0c0-2.997-.787-5.942-2.283-8.514a2.098 2.098 0 0 1 .76-2.867 2.09 2.09 0 0 1 2.863.762 21.227 21.227 0 0 1 2.846 10.619 2.09 2.09 0 0 1-2.093 2.096 2.096 2.096 0 0 1-2.093-2.096zM19.19 18.236a2.697 2.697 0 0 1 1.911-.797c.693 0 1.384.269 1.92.797a2.722 2.722 0 0 1 0 3.837 2.703 2.703 0 0 1-3.83 0 2.706 2.706 0 0 1 0-3.837zm-2.888-2.235c-2.11 2.434-2.007 6.211.224 8.54a6.298 6.298 0 0 0 4.575 1.958 6.308 6.308 0 0 0 4.48-1.862 6.304 6.304 0 0 0 1.306-1.897L35.06 6.872a.524.524 0 0 0-.7-.7l-15.844 8.184A6.407 6.407 0 0 0 16.302 16z"/></g>
</symbol>
<symbol id="sprite">
<symbol id="book" viewBox="0 0 24 24"><path d="M5.495 2H22V0H5a3 3 0 0 0-3 3v18a3 3 0 0 0 3 3h17V4H5.495c-1.376 0-1.376-2 0-2zM6 6h7v7l2-2 2 2V6h3v16H6V6z"/>
</symbol>
<symbol id="docent-logo-f-n-l-1" viewBox="0 0 166 27"><title>E49EB484-49BD-4950-98E1-2BD2A77CC8CA</title><g fill="#FFF" fill-rule="evenodd"><path d="M61.45 15.35c-.74.711-1.234 1.743-1.234 3.023 0 1.174.494 2.206 1.234 2.917.776.747 1.762 1.103 2.644 1.103a4.31 4.31 0 0 0 2.89-1.174c.6-.569 1.163-1.53 1.163-2.846 0-1.351-.529-2.276-1.128-2.917-.81-.853-1.762-1.174-2.855-1.174-1.022 0-1.903.285-2.714 1.068zm11.455 10.92H67.83v-1.92c-.776 1.138-2.186 2.454-4.97 2.454-2.326 0-4.018-.747-5.393-2.17C55.846 22.998 55 20.721 55 18.267c0-2.633.952-4.803 2.467-6.261 1.375-1.316 3.313-2.135 5.464-2.135 1.727 0 3.63.57 4.899 2.313V.338h5.075V26.27zM83.655 15.35c-.74.747-1.163 1.707-1.163 2.988 0 1.458.564 2.383 1.163 2.988.635.64 1.551 1.138 2.89 1.138 1.129 0 2.08-.391 2.82-1.138.74-.747 1.164-1.708 1.164-2.988s-.423-2.241-1.164-2.988c-.74-.747-1.691-1.139-2.855-1.139-1.163 0-2.114.392-2.855 1.139zm9.729 8.893c-1.41 1.423-3.807 2.561-6.874 2.561-3.066 0-5.463-1.138-6.873-2.561-1.586-1.6-2.361-3.877-2.361-5.905 0-2.028.775-4.304 2.361-5.905 1.41-1.423 3.807-2.562 6.873-2.562 3.067 0 5.464 1.139 6.874 2.562 1.586 1.6 2.361 3.877 2.361 5.905 0 2.028-.775 4.304-2.361 5.905zM111.782 15.42a5.066 5.066 0 0 0-3.313-1.209c-1.586 0-2.537.783-2.89 1.139-.67.676-1.163 1.707-1.163 2.988 0 1.174.423 2.17 1.057 2.846.776.853 1.939 1.28 3.067 1.28.88 0 2.08-.249 3.242-1.245v4.625c-1.339.747-2.608.96-4.018.96-2.643 0-4.652-.96-6.097-2.383-1.199-1.174-2.468-3.166-2.468-6.048 0-2.703 1.128-4.838 2.609-6.26 1.762-1.672 3.842-2.242 5.992-2.242 1.374 0 2.643.25 3.982.89v4.66M127.644 16.168c-.036-.142-.282-1.139-1.022-1.85-.564-.534-1.375-.89-2.397-.89-1.304 0-2.08.534-2.573 1.032-.388.427-.74.996-.881 1.708h6.873zm4.688 3.06h-11.738c0 .853.318 1.991.952 2.703.775.853 1.833.996 2.608.996.74 0 1.516-.143 2.045-.463.07-.035.67-.427 1.092-1.316l4.794.498c-.705 2.241-2.115 3.415-3.031 3.984-1.516.925-3.208 1.174-4.97 1.174-2.362 0-4.441-.427-6.274-2.276-1.375-1.388-2.362-3.487-2.362-6.12 0-2.276.811-4.624 2.397-6.26 1.903-1.92 4.265-2.277 6.027-2.277 1.763 0 4.3.32 6.239 2.384 1.868 1.992 2.22 4.482 2.22 6.438v.534zM136.561 10.405h5.076v1.885c1.55-1.992 3.383-2.312 4.864-2.312 1.374 0 3.172.25 4.511 1.6 1.48 1.495 1.586 3.38 1.586 4.661v10.032h-5.075v-8.147c0-1.031-.035-2.347-.846-3.166-.388-.391-1.022-.711-1.939-.711-1.057 0-1.727.427-2.114.854-.846.853-.987 1.992-.987 3.023v8.147h-5.076V10.405M162.82 14.531v11.74h-5.076V14.53h-1.762v-4.126h1.762V5.282h5.076v5.123h3.137v4.126h-3.137M0 22.16C0 10.493 9.478 1 21.128 1c2.706 0 5.344.502 7.835 1.507a2.099 2.099 0 0 1 1.167 2.72 2.093 2.093 0 0 1-2.715 1.169 16.911 16.911 0 0 0-6.287-1.204c-9.34 0-16.942 7.613-16.942 16.968a2.09 2.09 0 0 1-2.093 2.096A2.09 2.09 0 0 1 0 22.16zm38.069 0c0-2.997-.787-5.942-2.283-8.514a2.098 2.098 0 0 1 .76-2.867 2.09 2.09 0 0 1 2.863.762 21.227 21.227 0 0 1 2.846 10.619 2.09 2.09 0 0 1-2.093 2.096 2.096 2.096 0 0 1-2.093-2.096zM19.19 18.236a2.697 2.697 0 0 1 1.911-.797c.693 0 1.384.269 1.92.797a2.722 2.722 0 0 1 0 3.837 2.703 2.703 0 0 1-3.83 0 2.706 2.706 0 0 1 0-3.837zm-2.888-2.235c-2.11 2.434-2.007 6.211.224 8.54a6.298 6.298 0 0 0 4.575 1.958 6.308 6.308 0 0 0 4.48-1.862 6.304 6.304 0 0 0 1.306-1.897L35.06 6.872a.524.524 0 0 0-.7-.7l-15.844 8.184A6.407 6.407 0 0 0 16.302 16z"/></g>
</symbol>
<symbol id="sprite">
<symbol id="book" viewBox="0 0 24 24"><path d="M5.495 2H22V0H5a3 3 0 0 0-3 3v18a3 3 0 0 0 3 3h17V4H5.495c-1.376 0-1.376-2 0-2zM6 6h7v7l2-2 2 2V6h3v16H6V6z"/>
</symbol>
<symbol id="docent-logo-f-n-l-1" viewBox="0 0 166 27"><title>E49EB484-49BD-4950-98E1-2BD2A77CC8CA</title><g fill="#FFF" fill-rule="evenodd"><path d="M61.45 15.35c-.74.711-1.234 1.743-1.234 3.023 0 1.174.494 2.206 1.234 2.917.776.747 1.762 1.103 2.644 1.103a4.31 4.31 0 0 0 2.89-1.174c.6-.569 1.163-1.53 1.163-2.846 0-1.351-.529-2.276-1.128-2.917-.81-.853-1.762-1.174-2.855-1.174-1.022 0-1.903.285-2.714 1.068zm11.455 10.92H67.83v-1.92c-.776 1.138-2.186 2.454-4.97 2.454-2.326 0-4.018-.747-5.393-2.17C55.846 22.998 55 20.721 55 18.267c0-2.633.952-4.803 2.467-6.261 1.375-1.316 3.313-2.135 5.464-2.135 1.727 0 3.63.57 4.899 2.313V.338h5.075V26.27zM83.655 15.35c-.74.747-1.163 1.707-1.163 2.988 0 1.458.564 2.383 1.163 2.988.635.64 1.551 1.138 2.89 1.138 1.129 0 2.08-.391 2.82-1.138.74-.747 1.164-1.708 1.164-2.988s-.423-2.241-1.164-2.988c-.74-.747-1.691-1.139-2.855-1.139-1.163 0-2.114.392-2.855 1.139zm9.729 8.893c-1.41 1.423-3.807 2.561-6.874 2.561-3.066 0-5.463-1.138-6.873-2.561-1.586-1.6-2.361-3.877-2.361-5.905 0-2.028.775-4.304 2.361-5.905 1.41-1.423 3.807-2.562 6.873-2.562 3.067 0 5.464 1.139 6.874 2.562 1.586 1.6 2.361 3.877 2.361 5.905 0 2.028-.775 4.304-2.361 5.905zM111.782 15.42a5.066 5.066 0 0 0-3.313-1.209c-1.586 0-2.537.783-2.89 1.139-.67.676-1.163 1.707-1.163 2.988 0 1.174.423 2.17 1.057 2.846.776.853 1.939 1.28 3.067 1.28.88 0 2.08-.249 3.242-1.245v4.625c-1.339.747-2.608.96-4.018.96-2.643 0-4.652-.96-6.097-2.383-1.199-1.174-2.468-3.166-2.468-6.048 0-2.703 1.128-4.838 2.609-6.26 1.762-1.672 3.842-2.242 5.992-2.242 1.374 0 2.643.25 3.982.89v4.66M127.644 16.168c-.036-.142-.282-1.139-1.022-1.85-.564-.534-1.375-.89-2.397-.89-1.304 0-2.08.534-2.573 1.032-.388.427-.74.996-.881 1.708h6.873zm4.688 3.06h-11.738c0 .853.318 1.991.952 2.703.775.853 1.833.996 2.608.996.74 0 1.516-.143 2.045-.463.07-.035.67-.427 1.092-1.316l4.794.498c-.705 2.241-2.115 3.415-3.031 3.984-1.516.925-3.208 1.174-4.97 1.174-2.362 0-4.441-.427-6.274-2.276-1.375-1.388-2.362-3.487-2.362-6.12 0-2.276.811-4.624 2.397-6.26 1.903-1.92 4.265-2.277 6.027-2.277 1.763 0 4.3.32 6.239 2.384 1.868 1.992 2.22 4.482 2.22 6.438v.534zM136.561 10.405h5.076v1.885c1.55-1.992 3.383-2.312 4.864-2.312 1.374 0 3.172.25 4.511 1.6 1.48 1.495 1.586 3.38 1.586 4.661v10.032h-5.075v-8.147c0-1.031-.035-2.347-.846-3.166-.388-.391-1.022-.711-1.939-.711-1.057 0-1.727.427-2.114.854-.846.853-.987 1.992-.987 3.023v8.147h-5.076V10.405M162.82 14.531v11.74h-5.076V14.53h-1.762v-4.126h1.762V5.282h5.076v5.123h3.137v4.126h-3.137M0 22.16C0 10.493 9.478 1 21.128 1c2.706 0 5.344.502 7.835 1.507a2.099 2.099 0 0 1 1.167 2.72 2.093 2.093 0 0 1-2.715 1.169 16.911 16.911 0 0 0-6.287-1.204c-9.34 0-16.942 7.613-16.942 16.968a2.09 2.09 0 0 1-2.093 2.096A2.09 2.09 0 0 1 0 22.16zm38.069 0c0-2.997-.787-5.942-2.283-8.514a2.098 2.098 0 0 1 .76-2.867 2.09 2.09 0 0 1 2.863.762 21.227 21.227 0 0 1 2.846 10.619 2.09 2.09 0 0 1-2.093 2.096 2.096 2.096 0 0 1-2.093-2.096zM19.19 18.236a2.697 2.697 0 0 1 1.911-.797c.693 0 1.384.269 1.92.797a2.722 2.722 0 0 1 0 3.837 2.703 2.703 0 0 1-3.83 0 2.706 2.706 0 0 1 0-3.837zm-2.888-2.235c-2.11 2.434-2.007 6.211.224 8.54a6.298 6.298 0 0 0 4.575 1.958 6.308 6.308 0 0 0 4.48-1.862 6.304 6.304 0 0 0 1.306-1.897L35.06 6.872a.524.524 0 0 0-.7-.7l-15.844 8.184A6.407 6.407 0 0 0 16.302 16z"/></g>
</symbol>
<symbol id="sprite">
<symbol id="book" viewBox="0 0 24 24"><path d="M5.495 2H22V0H5a3 3 0 0 0-3 3v18a3 3 0 0 0 3 3h17V4H5.495c-1.376 0-1.376-2 0-2zM6 6h7v7l2-2 2 2V6h3v16H6V6z"/>
</symbol>
<symbol id="docent-logo-f-n-l-1" viewBox="0 0 166 27"><title>E49EB484-49BD-4950-98E1-2BD2A77CC8CA</title><g fill="#FFF" fill-rule="evenodd"><path d="M61.45 15.35c-.74.711-1.234 1.743-1.234 3.023 0 1.174.494 2.206 1.234 2.917.776.747 1.762 1.103 2.644 1.103a4.31 4.31 0 0 0 2.89-1.174c.6-.569 1.163-1.53 1.163-2.846 0-1.351-.529-2.276-1.128-2.917-.81-.853-1.762-1.174-2.855-1.174-1.022 0-1.903.285-2.714 1.068zm11.455 10.92H67.83v-1.92c-.776 1.138-2.186 2.454-4.97 2.454-2.326 0-4.018-.747-5.393-2.17C55.846 22.998 55 20.721 55 18.267c0-2.633.952-4.803 2.467-6.261 1.375-1.316 3.313-2.135 5.464-2.135 1.727 0 3.63.57 4.899 2.313V.338h5.075V26.27zM83.655 15.35c-.74.747-1.163 1.707-1.163 2.988 0 1.458.564 2.383 1.163 2.988.635.64 1.551 1.138 2.89 1.138 1.129 0 2.08-.391 2.82-1.138.74-.747 1.164-1.708 1.164-2.988s-.423-2.241-1.164-2.988c-.74-.747-1.691-1.139-2.855-1.139-1.163 0-2.114.392-2.855 1.139zm9.729 8.893c-1.41 1.423-3.807 2.561-6.874 2.561-3.066 0-5.463-1.138-6.873-2.561-1.586-1.6-2.361-3.877-2.361-5.905 0-2.028.775-4.304 2.361-5.905 1.41-1.423 3.807-2.562 6.873-2.562 3.067 0 5.464 1.139 6.874 2.562 1.586 1.6 2.361 3.877 2.361 5.905 0 2.028-.775 4.304-2.361 5.905zM111.782 15.42a5.066 5.066 0 0 0-3.313-1.209c-1.586 0-2.537.783-2.89 1.139-.67.676-1.163 1.707-1.163 2.988 0 1.174.423 2.17 1.057 2.846.776.853 1.939 1.28 3.067 1.28.88 0 2.08-.249 3.242-1.245v4.625c-1.339.747-2.608.96-4.018.96-2.643 0-4.652-.96-6.097-2.383-1.199-1.174-2.468-3.166-2.468-6.048 0-2.703 1.128-4.838 2.609-6.26 1.762-1.672 3.842-2.242 5.992-2.242 1.374 0 2.643.25 3.982.89v4.66M127.644 16.168c-.036-.142-.282-1.139-1.022-1.85-.564-.534-1.375-.89-2.397-.89-1.304 0-2.08.534-2.573 1.032-.388.427-.74.996-.881 1.708h6.873zm4.688 3.06h-11.738c0 .853.318 1.991.952 2.703.775.853 1.833.996 2.608.996.74 0 1.516-.143 2.045-.463.07-.035.67-.427 1.092-1.316l4.794.498c-.705 2.241-2.115 3.415-3.031 3.984-1.516.925-3.208 1.174-4.97 1.174-2.362 0-4.441-.427-6.274-2.276-1.375-1.388-2.362-3.487-2.362-6.12 0-2.276.811-4.624 2.397-6.26 1.903-1.92 4.265-2.277 6.027-2.277 1.763 0 4.3.32 6.239 2.384 1.868 1.992 2.22 4.482 2.22 6.438v.534zM136.561 10.405h5.076v1.885c1.55-1.992 3.383-2.312 4.864-2.312 1.374 0 3.172.25 4.511 1.6 1.48 1.495 1.586 3.38 1.586 4.661v10.032h-5.075v-8.147c0-1.031-.035-2.347-.846-3.166-.388-.391-1.022-.711-1.939-.711-1.057 0-1.727.427-2.114.854-.846.853-.987 1.992-.987 3.023v8.147h-5.076V10.405M162.82 14.531v11.74h-5.076V14.53h-1.762v-4.126h1.762V5.282h5.076v5.123h3.137v4.126h-3.137M0 22.16C0 10.493 9.478 1 21.128 1c2.706 0 5.344.502 7.835 1.507a2.099 2.099 0 0 1 1.167 2.72 2.093 2.093 0 0 1-2.715 1.169 16.911 16.911 0 0 0-6.287-1.204c-9.34 0-16.942 7.613-16.942 16.968a2.09 2.09 0 0 1-2.093 2.096A2.09 2.09 0 0 1 0 22.16zm38.069 0c0-2.997-.787-5.942-2.283-8.514a2.098 2.098 0 0 1 .76-2.867 2.09 2.09 0 0 1 2.863.762 21.227 21.227 0 0 1 2.846 10.619 2.09 2.09 0 0 1-2.093 2.096 2.096 2.096 0 0 1-2.093-2.096zM19.19 18.236a2.697 2.697 0 0 1 1.911-.797c.693 0 1.384.269 1.92.797a2.722 2.722 0 0 1 0 3.837 2.703 2.703 0 0 1-3.83 0 2.706 2.706 0 0 1 0-3.837zm-2.888-2.235c-2.11 2.434-2.007 6.211.224 8.54a6.298 6.298 0 0 0 4.575 1.958 6.308 6.308 0 0 0 4.48-1.862 6.304 6.304 0 0 0 1.306-1.897L35.06 6.872a.524.524 0 0 0-.7-.7l-15.844 8.184A6.407 6.407 0 0 0 16.302 16z"/></g>
</symbol>
<symbol id="sprite">
<symbol id="book" viewBox="0 0 24 24"><path d="M5.495 2H22V0H5a3 3 0 0 0-3 3v18a3 3 0 0 0 3 3h17V4H5.495c-1.376 0-1.376-2 0-2zM6 6h7v7l2-2 2 2V6h3v16H6V6z"/>
</symbol>
<symbol id="sprite">
<symbol id="book" viewBox="0 0 24 24"><path d="M5.495 2H22V0H5a3 3 0 0 0-3 3v18a3 3 0 0 0 3 3h17V4H5.495c-1.376 0-1.376-2 0-2zM6 6h7v7l2-2 2 2V6h3v16H6V6z"/>
</symbol>
<symbol id="sprite">
<symbol id="book" viewBox="0 0 24 24"><path d="M5.495 2H22V0H5a3 3 0 0 0-3 3v18a3 3 0 0 0 3 3h17V4H5.495c-1.376 0-1.376-2 0-2zM6 6h7v7l2-2 2 2V6h3v16H6V6z"/>
</symbol>
<symbol id="twitter" viewBox="0 0 24 24"><path d="M12 0C5.373 0 0 5.373 0 12s5.373 12 12 12 12-5.373 12-12S18.627 0 12 0zm6.066 9.645c.183 4.04-2.83 8.544-8.164 8.544a8.127 8.127 0 0 1-4.402-1.3 5.778 5.778 0 0 0 4.252-1.19 2.88 2.88 0 0 1-2.684-2c.45.086.895.06 1.298-.05-1.38-.277-2.335-1.52-2.304-2.85.388.214.83.343 1.3.36a2.877 2.877 0 0 1-.888-3.837 8.153 8.153 0 0 0 5.92 3 2.876 2.876 0 0 1 4.895-2.62 5.73 5.73 0 0 0 1.82-.696 2.884 2.884 0 0 1-1.27 1.59 5.73 5.73 0 0 0 1.65-.456 5.765 5.765 0 0 1-1.437 1.49z"/>
</symbol>
<symbol id="weather" viewBox="0 0 24 24"><path d="M9.125 19.41L5.535 23l-1.41-1.41L7.715 18l1.41 1.41zm1.125 1.09a1.25 1.25 0 1 0 0 2.5 1.25 1.25 0 0 0 0-2.5zM24 12.722C24 15.084 22.05 17 19.645 17H9.355a4.36 4.36 0 0 1-3.675-2H4.354C1.95 15 0 13.084 0 10.722c0-2.1 1.545-3.846 3.578-4.206C3.746 3.443 6.328 1 9.5 1c1.797 0 3.403.785 4.49 2.024 3.4-.286 6.254 2.258 6.432 5.492C22.455 8.876 24 10.62 24 12.722zM8.578 8.516c.116-2.126 1.39-3.95 3.212-4.872C11.214 3.25 10.467 3 9.5 3 5.625 3 5.438 6.854 5.488 8.21 4.104 8.124 2 8.603 2 10.72 2 11.978 3.057 13 4.354 13h.674c-.147-2.357 1.528-4.126 3.55-4.484zM22 12.722c0-2.076-1.98-2.618-3.488-2.512C18.73 8.77 18.272 5 14.5 5c-3.875 0-4.062 3.854-4.012 5.21C9.104 10.124 7 10.603 7 12.72 7 13.978 8.057 15 9.354 15h10.29c1.3 0 2.356-1.022 2.356-2.278zM12.75 18a1.25 1.25 0 1 0 0 2.5 1.25 1.25 0 0 0 0-2.5zM14 21.59L15.41 23 19 19.41 17.59 18 14 21.59zm2.48-12.838l-1.48.88V8h-1v1.633l-1.494-.896-.506.867 1.5.896-1.5.865.537.867L14 11.367V13h1v-1.633l1.467.87.533-.868-1.5-.87 1.5-.88-.52-.87z"/>
</symbol>
</symbol>
<symbol id="twitter" viewBox="0 0 24 24"><path d="M12 0C5.373 0 0 5.373 0 12s5.373 12 12 12 12-5.373 12-12S18.627 0 12 0zm6.066 9.645c.183 4.04-2.83 8.544-8.164 8.544a8.127 8.127 0 0 1-4.402-1.3 5.778 5.778 0 0 0 4.252-1.19 2.88 2.88 0 0 1-2.684-2c.45.086.895.06 1.298-.05-1.38-.277-2.335-1.52-2.304-2.85.388.214.83.343 1.3.36a2.877 2.877 0 0 1-.888-3.837 8.153 8.153 0 0 0 5.92 3 2.876 2.876 0 0 1 4.895-2.62 5.73 5.73 0 0 0 1.82-.696 2.884 2.884 0 0 1-1.27 1.59 5.73 5.73 0 0 0 1.65-.456 5.765 5.765 0 0 1-1.437 1.49z"/>
</symbol>
<symbol id="weather" viewBox="0 0 24 24"><path d="M9.125 19.41L5.535 23l-1.41-1.41L7.715 18l1.41 1.41zm1.125 1.09a1.25 1.25 0 1 0 0 2.5 1.25 1.25 0 0 0 0-2.5zM24 12.722C24 15.084 22.05 17 19.645 17H9.355a4.36 4.36 0 0 1-3.675-2H4.354C1.95 15 0 13.084 0 10.722c0-2.1 1.545-3.846 3.578-4.206C3.746 3.443 6.328 1 9.5 1c1.797 0 3.403.785 4.49 2.024 3.4-.286 6.254 2.258 6.432 5.492C22.455 8.876 24 10.62 24 12.722zM8.578 8.516c.116-2.126 1.39-3.95 3.212-4.872C11.214 3.25 10.467 3 9.5 3 5.625 3 5.438 6.854 5.488 8.21 4.104 8.124 2 8.603 2 10.72 2 11.978 3.057 13 4.354 13h.674c-.147-2.357 1.528-4.126 3.55-4.484zM22 12.722c0-2.076-1.98-2.618-3.488-2.512C18.73 8.77 18.272 5 14.5 5c-3.875 0-4.062 3.854-4.012 5.21C9.104 10.124 7 10.603 7 12.72 7 13.978 8.057 15 9.354 15h10.29c1.3 0 2.356-1.022 2.356-2.278zM12.75 18a1.25 1.25 0 1 0 0 2.5 1.25 1.25 0 0 0 0-2.5zM14 21.59L15.41 23 19 19.41 17.59 18 14 21.59zm2.48-12.838l-1.48.88V8h-1v1.633l-1.494-.896-.506.867 1.5.896-1.5.865.537.867L14 11.367V13h1v-1.633l1.467.87.533-.868-1.5-.87 1.5-.88-.52-.87z"/>
</symbol>
</symbol>
<symbol id="twitter" viewBox="0 0 24 24"><path d="M12 0C5.373 0 0 5.373 0 12s5.373 12 12 12 12-5.373 12-12S18.627 0 12 0zm6.066 9.645c.183 4.04-2.83 8.544-8.164 8.544a8.127 8.127 0 0 1-4.402-1.3 5.778 5.778 0 0 0 4.252-1.19 2.88 2.88 0 0 1-2.684-2c.45.086.895.06 1.298-.05-1.38-.277-2.335-1.52-2.304-2.85.388.214.83.343 1.3.36a2.877 2.877 0 0 1-.888-3.837 8.153 8.153 0 0 0 5.92 3 2.876 2.876 0 0 1 4.895-2.62 5.73 5.73 0 0 0 1.82-.696 2.884 2.884 0 0 1-1.27 1.59 5.73 5.73 0 0 0 1.65-.456 5.765 5.765 0 0 1-1.437 1.49z"/>
</symbol>
<symbol id="weather" viewBox="0 0 24 24"><path d="M9.125 19.41L5.535 23l-1.41-1.41L7.715 18l1.41 1.41zm1.125 1.09a1.25 1.25 0 1 0 0 2.5 1.25 1.25 0 0 0 0-2.5zM24 12.722C24 15.084 22.05 17 19.645 17H9.355a4.36 4.36 0 0 1-3.675-2H4.354C1.95 15 0 13.084 0 10.722c0-2.1 1.545-3.846 3.578-4.206C3.746 3.443 6.328 1 9.5 1c1.797 0 3.403.785 4.49 2.024 3.4-.286 6.254 2.258 6.432 5.492C22.455 8.876 24 10.62 24 12.722zM8.578 8.516c.116-2.126 1.39-3.95 3.212-4.872C11.214 3.25 10.467 3 9.5 3 5.625 3 5.438 6.854 5.488 8.21 4.104 8.124 2 8.603 2 10.72 2 11.978 3.057 13 4.354 13h.674c-.147-2.357 1.528-4.126 3.55-4.484zM22 12.722c0-2.076-1.98-2.618-3.488-2.512C18.73 8.77 18.272 5 14.5 5c-3.875 0-4.062 3.854-4.012 5.21C9.104 10.124 7 10.603 7 12.72 7 13.978 8.057 15 9.354 15h10.29c1.3 0 2.356-1.022 2.356-2.278zM12.75 18a1.25 1.25 0 1 0 0 2.5 1.25 1.25 0 0 0 0-2.5zM14 21.59L15.41 23 19 19.41 17.59 18 14 21.59zm2.48-12.838l-1.48.88V8h-1v1.633l-1.494-.896-.506.867 1.5.896-1.5.865.537.867L14 11.367V13h1v-1.633l1.467.87.533-.868-1.5-.87 1.5-.88-.52-.87z"/>
</symbol>
</symbol>
<symbol id="twitter" viewBox="0 0 24 24"><path d="M12 0C5.373 0 0 5.373 0 12s5.373 12 12 12 12-5.373 12-12S18.627 0 12 0zm6.066 9.645c.183 4.04-2.83 8.544-8.164 8.544a8.127 8.127 0 0 1-4.402-1.3 5.778 5.778 0 0 0 4.252-1.19 2.88 2.88 0 0 1-2.684-2c.45.086.895.06 1.298-.05-1.38-.277-2.335-1.52-2.304-2.85.388.214.83.343 1.3.36a2.877 2.877 0 0 1-.888-3.837 8.153 8.153 0 0 0 5.92 3 2.876 2.876 0 0 1 4.895-2.62 5.73 5.73 0 0 0 1.82-.696 2.884 2.884 0 0 1-1.27 1.59 5.73 5.73 0 0 0 1.65-.456 5.765 5.765 0 0 1-1.437 1.49z"/>
</symbol>
<symbol id="weather" viewBox="0 0 24 24"><path d="M9.125 19.41L5.535 23l-1.41-1.41L7.715 18l1.41 1.41zm1.125 1.09a1.25 1.25 0 1 0 0 2.5 1.25 1.25 0 0 0 0-2.5zM24 12.722C24 15.084 22.05 17 19.645 17H9.355a4.36 4.36 0 0 1-3.675-2H4.354C1.95 15 0 13.084 0 10.722c0-2.1 1.545-3.846 3.578-4.206C3.746 3.443 6.328 1 9.5 1c1.797 0 3.403.785 4.49 2.024 3.4-.286 6.254 2.258 6.432 5.492C22.455 8.876 24 10.62 24 12.722zM8.578 8.516c.116-2.126 1.39-3.95 3.212-4.872C11.214 3.25 10.467 3 9.5 3 5.625 3 5.438 6.854 5.488 8.21 4.104 8.124 2 8.603 2 10.72 2 11.978 3.057 13 4.354 13h.674c-.147-2.357 1.528-4.126 3.55-4.484zM22 12.722c0-2.076-1.98-2.618-3.488-2.512C18.73 8.77 18.272 5 14.5 5c-3.875 0-4.062 3.854-4.012 5.21C9.104 10.124 7 10.603 7 12.72 7 13.978 8.057 15 9.354 15h10.29c1.3 0 2.356-1.022 2.356-2.278zM12.75 18a1.25 1.25 0 1 0 0 2.5 1.25 1.25 0 0 0 0-2.5zM14 21.59L15.41 23 19 19.41 17.59 18 14 21.59zm2.48-12.838l-1.48.88V8h-1v1.633l-1.494-.896-.506.867 1.5.896-1.5.865.537.867L14 11.367V13h1v-1.633l1.467.87.533-.868-1.5-.87 1.5-.88-.52-.87z"/>
</symbol>
</symbol>
<symbol id="twitter" viewBox="0 0 24 24"><path d="M12 0C5.373 0 0 5.373 0 12s5.373 12 12 12 12-5.373 12-12S18.627 0 12 0zm6.066 9.645c.183 4.04-2.83 8.544-8.164 8.544a8.127 8.127 0 0 1-4.402-1.3 5.778 5.778 0 0 0 4.252-1.19 2.88 2.88 0 0 1-2.684-2c.45.086.895.06 1.298-.05-1.38-.277-2.335-1.52-2.304-2.85.388.214.83.343 1.3.36a2.877 2.877 0 0 1-.888-3.837 8.153 8.153 0 0 0 5.92 3 2.876 2.876 0 0 1 4.895-2.62 5.73 5.73 0 0 0 1.82-.696 2.884 2.884 0 0 1-1.27 1.59 5.73 5.73 0 0 0 1.65-.456 5.765 5.765 0 0 1-1.437 1.49z"/>
</symbol>
<symbol id="weather" viewBox="0 0 24 24"><path d="M9.125 19.41L5.535 23l-1.41-1.41L7.715 18l1.41 1.41zm1.125 1.09a1.25 1.25 0 1 0 0 2.5 1.25 1.25 0 0 0 0-2.5zM24 12.722C24 15.084 22.05 17 19.645 17H9.355a4.36 4.36 0 0 1-3.675-2H4.354C1.95 15 0 13.084 0 10.722c0-2.1 1.545-3.846 3.578-4.206C3.746 3.443 6.328 1 9.5 1c1.797 0 3.403.785 4.49 2.024 3.4-.286 6.254 2.258 6.432 5.492C22.455 8.876 24 10.62 24 12.722zM8.578 8.516c.116-2.126 1.39-3.95 3.212-4.872C11.214 3.25 10.467 3 9.5 3 5.625 3 5.438 6.854 5.488 8.21 4.104 8.124 2 8.603 2 10.72 2 11.978 3.057 13 4.354 13h.674c-.147-2.357 1.528-4.126 3.55-4.484zM22 12.722c0-2.076-1.98-2.618-3.488-2.512C18.73 8.77 18.272 5 14.5 5c-3.875 0-4.062 3.854-4.012 5.21C9.104 10.124 7 10.603 7 12.72 7 13.978 8.057 15 9.354 15h10.29c1.3 0 2.356-1.022 2.356-2.278zM12.75 18a1.25 1.25 0 1 0 0 2.5 1.25 1.25 0 0 0 0-2.5zM14 21.59L15.41 23 19 19.41 17.59 18 14 21.59zm2.48-12.838l-1.48.88V8h-1v1.633l-1.494-.896-.506.867 1.5.896-1.5.865.537.867L14 11.367V13h1v-1.633l1.467.87.533-.868-1.5-.87 1.5-.88-.52-.87z"/>
</symbol>
</symbol>
<symbol id="twitter" viewBox="0 0 24 24"><path d="M12 0C5.373 0 0 5.373 0 12s5.373 12 12 12 12-5.373 12-12S18.627 0 12 0zm6.066 9.645c.183 4.04-2.83 8.544-8.164 8.544a8.127 8.127 0 0 1-4.402-1.3 5.778 5.778 0 0 0 4.252-1.19 2.88 2.88 0 0 1-2.684-2c.45.086.895.06 1.298-.05-1.38-.277-2.335-1.52-2.304-2.85.388.214.83.343 1.3.36a2.877 2.877 0 0 1-.888-3.837 8.153 8.153 0 0 0 5.92 3 2.876 2.876 0 0 1 4.895-2.62 5.73 5.73 0 0 0 1.82-.696 2.884 2.884 0 0 1-1.27 1.59 5.73 5.73 0 0 0 1.65-.456 5.765 5.765 0 0 1-1.437 1.49z"/>
</symbol>
<symbol id="weather" viewBox="0 0 24 24"><path d="M9.125 19.41L5.535 23l-1.41-1.41L7.715 18l1.41 1.41zm1.125 1.09a1.25 1.25 0 1 0 0 2.5 1.25 1.25 0 0 0 0-2.5zM24 12.722C24 15.084 22.05 17 19.645 17H9.355a4.36 4.36 0 0 1-3.675-2H4.354C1.95 15 0 13.084 0 10.722c0-2.1 1.545-3.846 3.578-4.206C3.746 3.443 6.328 1 9.5 1c1.797 0 3.403.785 4.49 2.024 3.4-.286 6.254 2.258 6.432 5.492C22.455 8.876 24 10.62 24 12.722zM8.578 8.516c.116-2.126 1.39-3.95 3.212-4.872C11.214 3.25 10.467 3 9.5 3 5.625 3 5.438 6.854 5.488 8.21 4.104 8.124 2 8.603 2 10.72 2 11.978 3.057 13 4.354 13h.674c-.147-2.357 1.528-4.126 3.55-4.484zM22 12.722c0-2.076-1.98-2.618-3.488-2.512C18.73 8.77 18.272 5 14.5 5c-3.875 0-4.062 3.854-4.012 5.21C9.104 10.124 7 10.603 7 12.72 7 13.978 8.057 15 9.354 15h10.29c1.3 0 2.356-1.022 2.356-2.278zM12.75 18a1.25 1.25 0 1 0 0 2.5 1.25 1.25 0 0 0 0-2.5zM14 21.59L15.41 23 19 19.41 17.59 18 14 21.59zm2.48-12.838l-1.48.88V8h-1v1.633l-1.494-.896-.506.867 1.5.896-1.5.865.537.867L14 11.367V13h1v-1.633l1.467.87.533-.868-1.5-.87 1.5-.88-.52-.87z"/>
</symbol>
</symbol>
<symbol id="twitter" viewBox="0 0 24 24"><path d="M12 0C5.373 0 0 5.373 0 12s5.373 12 12 12 12-5.373 12-12S18.627 0 12 0zm6.066 9.645c.183 4.04-2.83 8.544-8.164 8.544a8.127 8.127 0 0 1-4.402-1.3 5.778 5.778 0 0 0 4.252-1.19 2.88 2.88 0 0 1-2.684-2c.45.086.895.06 1.298-.05-1.38-.277-2.335-1.52-2.304-2.85.388.214.83.343 1.3.36a2.877 2.877 0 0 1-.888-3.837 8.153 8.153 0 0 0 5.92 3 2.876 2.876 0 0 1 4.895-2.62 5.73 5.73 0 0 0 1.82-.696 2.884 2.884 0 0 1-1.27 1.59 5.73 5.73 0 0 0 1.65-.456 5.765 5.765 0 0 1-1.437 1.49z"/>
</symbol>
<symbol id="weather" viewBox="0 0 24 24"><path d="M9.125 19.41L5.535 23l-1.41-1.41L7.715 18l1.41 1.41zm1.125 1.09a1.25 1.25 0 1 0 0 2.5 1.25 1.25 0 0 0 0-2.5zM24 12.722C24 15.084 22.05 17 19.645 17H9.355a4.36 4.36 0 0 1-3.675-2H4.354C1.95 15 0 13.084 0 10.722c0-2.1 1.545-3.846 3.578-4.206C3.746 3.443 6.328 1 9.5 1c1.797 0 3.403.785 4.49 2.024 3.4-.286 6.254 2.258 6.432 5.492C22.455 8.876 24 10.62 24 12.722zM8.578 8.516c.116-2.126 1.39-3.95 3.212-4.872C11.214 3.25 10.467 3 9.5 3 5.625 3 5.438 6.854 5.488 8.21 4.104 8.124 2 8.603 2 10.72 2 11.978 3.057 13 4.354 13h.674c-.147-2.357 1.528-4.126 3.55-4.484zM22 12.722c0-2.076-1.98-2.618-3.488-2.512C18.73 8.77 18.272 5 14.5 5c-3.875 0-4.062 3.854-4.012 5.21C9.104 10.124 7 10.603 7 12.72 7 13.978 8.057 15 9.354 15h10.29c1.3 0 2.356-1.022 2.356-2.278zM12.75 18a1.25 1.25 0 1 0 0 2.5 1.25 1.25 0 0 0 0-2.5zM14 21.59L15.41 23 19 19.41 17.59 18 14 21.59zm2.48-12.838l-1.48.88V8h-1v1.633l-1.494-.896-.506.867 1.5.896-1.5.865.537.867L14 11.367V13h1v-1.633l1.467.87.533-.868-1.5-.87 1.5-.88-.52-.87z"/>
</symbol>
</symbol>
<symbol id="twitter" viewBox="0 0 24 24"><path d="M12 0C5.373 0 0 5.373 0 12s5.373 12 12 12 12-5.373 12-12S18.627 0 12 0zm6.066 9.645c.183 4.04-2.83 8.544-8.164 8.544a8.127 8.127 0 0 1-4.402-1.3 5.778 5.778 0 0 0 4.252-1.19 2.88 2.88 0 0 1-2.684-2c.45.086.895.06 1.298-.05-1.38-.277-2.335-1.52-2.304-2.85.388.214.83.343 1.3.36a2.877 2.877 0 0 1-.888-3.837 8.153 8.153 0 0 0 5.92 3 2.876 2.876 0 0 1 4.895-2.62 5.73 5.73 0 0 0 1.82-.696 2.884 2.884 0 0 1-1.27 1.59 5.73 5.73 0 0 0 1.65-.456 5.765 5.765 0 0 1-1.437 1.49z"/>
</symbol>
<symbol id="weather" viewBox="0 0 24 24"><path d="M9.125 19.41L5.535 23l-1.41-1.41L7.715 18l1.41 1.41zm1.125 1.09a1.25 1.25 0 1 0 0 2.5 1.25 1.25 0 0 0 0-2.5zM24 12.722C24 15.084 22.05 17 19.645 17H9.355a4.36 4.36 0 0 1-3.675-2H4.354C1.95 15 0 13.084 0 10.722c0-2.1 1.545-3.846 3.578-4.206C3.746 3.443 6.328 1 9.5 1c1.797 0 3.403.785 4.49 2.024 3.4-.286 6.254 2.258 6.432 5.492C22.455 8.876 24 10.62 24 12.722zM8.578 8.516c.116-2.126 1.39-3.95 3.212-4.872C11.214 3.25 10.467 3 9.5 3 5.625 3 5.438 6.854 5.488 8.21 4.104 8.124 2 8.603 2 10.72 2 11.978 3.057 13 4.354 13h.674c-.147-2.357 1.528-4.126 3.55-4.484zM22 12.722c0-2.076-1.98-2.618-3.488-2.512C18.73 8.77 18.272 5 14.5 5c-3.875 0-4.062 3.854-4.012 5.21C9.104 10.124 7 10.603 7 12.72 7 13.978 8.057 15 9.354 15h10.29c1.3 0 2.356-1.022 2.356-2.278zM12.75 18a1.25 1.25 0 1 0 0 2.5 1.25 1.25 0 0 0 0-2.5zM14 21.59L15.41 23 19 19.41 17.59 18 14 21.59zm2.48-12.838l-1.48.88V8h-1v1.633l-1.494-.896-.506.867 1.5.896-1.5.865.537.867L14 11.367V13h1v-1.633l1.467.87.533-.868-1.5-.87 1.5-.88-.52-.87z"/>
</symbol></svg>