<?xml version="1.0" encoding="UTF-8"?>
<svg width="166px" height="27px" viewBox="0 0 166 27" version="1.1" xmlns="http://www.w3.org/2000/svg" xmlns:xlink="http://www.w3.org/1999/xlink">
    <!-- Generator: sketchtool 42 (36781) - http://www.bohemiancoding.com/sketch -->
    <title>E49EB484-49BD-4950-98E1-2BD2A77CC8CA</title>
    <desc>Created with sketchtool.</desc>
    <defs></defs>
    <g id="Question---Desktop" stroke="none" stroke-width="1" fill="none" fill-rule="evenodd">
        <g id="Question" transform="translate(-208.000000, -20.000000)" fill="#FFFFFF">
            <g id="Docent-logo-FNL-(1)" transform="translate(208.000000, 20.000000)">
                <g id="Group-3" transform="translate(55.000000, 0.000000)">
                    <path d="M6.45017419,15.3496629 C5.71000369,16.0610703 5.21648848,17.0926626 5.21648848,18.3734024 C5.21648848,19.5472763 5.71000369,20.5789718 6.45017419,21.2903792 C7.22553733,22.0374086 8.21246544,22.3931123 9.09361106,22.3931123 C10.0452442,22.3931123 11.1731475,22.0017866 11.9839078,21.2192385 C12.5831032,20.6501126 13.1470037,19.689661 13.1470037,18.3734024 C13.1470037,17.0216252 12.6182959,16.0966923 12.0191005,15.4564257 C11.2084424,14.6026335 10.2568092,14.2824486 9.16420092,14.2824486 C8.14197788,14.2824486 7.26083226,14.5670115 6.45017419,15.3496629 Z M17.9053742,26.2706439 L12.8297585,26.2706439 L12.8297585,24.3497408 C12.0543954,25.4879926 10.6444396,26.8042511 7.86002765,26.8042511 C5.53373364,26.8042511 3.84192995,26.0572217 2.46726912,24.6342005 C0.845952995,22.9979635 0,20.7212533 0,18.266743 C0,15.6342259 0.95163318,13.4642785 2.46726912,12.0057384 C3.84192995,10.6895832 5.78049124,9.87141304 7.93051521,9.87141304 C9.65761382,9.87141304 11.5608802,10.4405389 12.8297585,12.1835387 L12.8297585,0.33772804 L17.9053742,0.33772804 L17.9053742,26.2706439 L17.9053742,26.2706439 Z" id="Fill-1"></path>
                    <path d="M28.655494,15.3496629 C27.9153235,16.0966923 27.4922959,17.0572472 27.4922959,18.3377804 C27.4922959,19.7963205 28.0562986,20.7212533 28.655494,21.325898 C29.289882,21.9663711 30.2063226,22.4643563 31.5456885,22.4643563 C32.6735917,22.4643563 33.6252249,22.0730306 34.3654977,21.325898 C35.1055659,20.5789718 35.5285935,19.618417 35.5285935,18.3377804 C35.5285935,17.0572472 35.1055659,16.0966923 34.3654977,15.3496629 C33.6252249,14.6026335 32.6735917,14.2113078 31.5104959,14.2113078 C30.3472977,14.2113078 29.3956645,14.6026335 28.655494,15.3496629 Z M38.3835954,24.242978 C36.9737419,25.665896 34.5768581,26.8042511 31.5104959,26.8042511 C28.4440313,26.8042511 26.0472498,25.665896 24.6373963,24.242978 C23.0512728,22.6421565 22.2758074,20.3655496 22.2758074,18.3377804 C22.2758074,16.3101145 23.0512728,14.0335076 24.6373963,12.4326861 C26.0472498,11.0096649 28.4440313,9.87141304 31.5104959,9.87141304 C34.5768581,9.87141304 36.9737419,11.0096649 38.3835954,12.4326861 C39.9696166,14.0335076 40.745082,16.3101145 40.745082,18.3377804 C40.745082,20.3655496 39.9696166,22.6421565 38.3835954,24.242978 L38.3835954,24.242978 Z" id="Fill-3"></path>
                    <path d="M56.7824848,15.4208037 C55.5489014,14.3892113 54.2799207,14.2113078 53.4692627,14.2113078 C51.8831392,14.2113078 50.931506,14.993856 50.5790682,15.3496629 C49.9093853,16.0255516 49.41587,17.0572472 49.41587,18.3377804 C49.41587,19.5117575 49.8388977,20.5078311 50.4732857,21.1837198 C51.2487512,22.0374086 52.411847,22.4643563 53.5397502,22.4643563 C54.4208959,22.4643563 55.6193889,22.2153121 56.7824848,21.2192385 L56.7824848,25.8436963 C55.4431189,26.5908289 54.1742406,26.8042511 52.7642848,26.8042511 C50.1208479,26.8042511 48.1117991,25.8436963 46.6666507,24.4208815 C45.4682599,23.2469044 44.1993816,21.2548605 44.1993816,18.3734024 C44.1993816,15.6698479 45.3272848,13.5354192 46.8076258,12.1125012 C48.5700194,10.4405389 50.6495558,9.87141304 52.7995797,9.87141304 C54.1742406,9.87141304 55.4431189,10.120354 56.7824848,10.7607239 L56.7824848,15.4208037" id="Fill-4"></path>
                    <path d="M72.6437198,16.167833 C72.6084249,16.0255516 72.3616673,15.029478 71.6215991,14.3179673 C71.0575963,13.7843602 70.2469382,13.4286565 69.2248175,13.4286565 C67.9206442,13.4286565 67.1451788,13.9622636 66.6517659,14.4602488 C66.2641355,14.8871965 65.9115954,15.4564257 65.7706203,16.167833 L72.6437198,16.167833 Z M77.3315005,19.2270913 L65.5943502,19.2270913 C65.5943502,20.0808834 65.9115954,21.2192385 66.5460857,21.9307491 C67.3214488,22.784438 68.3788645,22.9267195 69.15433,22.9267195 C69.8945005,22.9267195 70.6698636,22.784438 71.1985714,22.4643563 C71.2691613,22.4287343 71.8682544,22.0374086 72.291282,21.1480978 L77.0847429,21.6460829 C76.3798673,23.8872743 74.9699115,25.0611481 74.0535733,25.6303773 C72.5379373,26.5552069 70.8461336,26.8042511 69.0837401,26.8042511 C66.7222535,26.8042511 64.6427171,26.3773034 62.8098359,24.527541 C61.4352774,23.1402449 60.4483493,21.0414383 60.4483493,18.4089212 C60.4483493,16.1323143 61.2590074,13.7843602 62.8451309,12.1481232 C64.7483972,10.2271167 67.1099862,9.87141304 68.8723797,9.87141304 C70.634671,9.87141304 73.1724276,10.191598 75.1109889,12.2547827 C76.9790627,14.2469298 77.3315005,16.736959 77.3315005,18.6934841 L77.3315005,19.2270913 L77.3315005,19.2270913 Z" id="Fill-5"></path>
                    <path d="M81.5612654,10.4050202 L86.6366765,10.4050202 L86.6366765,12.2904047 C88.1876074,10.2982575 90.0204885,9.97807252 91.5007272,9.97807252 C92.875388,9.97807252 94.6729742,10.2271167 96.0123401,11.578894 C97.4927834,13.0729528 97.5984636,14.9584405 97.5984636,16.2389738 L97.5984636,26.2706439 L92.5229502,26.2706439 L92.5229502,18.1244615 C92.5229502,17.0926626 92.4877576,15.7765074 91.6769972,14.9584405 C91.2893668,14.5670115 90.6548765,14.2469298 89.7384359,14.2469298 C88.6811226,14.2469298 88.0113373,14.6737743 87.6237069,15.1006187 C86.7777539,15.9544108 86.6366765,17.0926626 86.6366765,18.1244615 L86.6366765,26.2706439 L81.5612654,26.2706439 L81.5612654,10.4050202" id="Fill-7"></path>
                    <polyline id="Fill-8" points="107.820387 14.5314928 107.820387 26.2706439 102.744055 26.2706439 102.744055 14.5314928 100.981969 14.5314928 100.981969 10.4050202 102.744055 10.4050202 102.744055 5.28247401 107.820387 5.28247401 107.820387 10.4050202 110.957032 10.4050202 110.957032 14.5314928 107.820387 14.5314928"></polyline>
                </g>
                <path d="M3.55271368e-15,22.1599127 C3.55271368e-15,10.4928774 9.47834931,1 21.127529,1 C23.8342313,1 26.4718949,1.50248238 28.9628212,2.50728651 C30.0349659,2.94038344 30.5539991,4.15286209 30.1300645,5.22665014 C29.6976304,6.30083973 28.4869272,6.82066847 27.4147825,6.3960038 C25.4169899,5.59919541 23.2981189,5.19203772 21.127529,5.19203772 C11.7872571,5.19203772 4.18562212,12.8053243 4.18562212,22.1599127 C4.18562212,23.3204326 3.25147465,24.2559316 2.09273088,24.2559316 C0.934067281,24.2559316 3.55271368e-15,23.3204326 3.55271368e-15,22.1599127 Z M38.069035,22.1599127 C38.069035,19.1631679 37.2820258,16.2179803 35.7859465,13.6457395 C35.2065346,12.6409354 35.5439502,11.3590713 36.5468157,10.7786909 C37.5501622,10.1985514 38.8300645,10.5360024 39.4094765,11.5408066 C41.2691917,14.7542203 42.2547373,18.4268308 42.2547373,22.1599127 C42.2547373,23.3204326 41.3205899,24.2559316 40.1619263,24.2559316 C39.0116018,24.2559316 38.069035,23.3204326 38.069035,22.1599127 Z M19.1901954,18.2360208 C19.7174876,17.7078401 20.4097189,17.4393731 21.1013088,17.4393731 C21.7935401,17.4393731 22.48513,17.7078401 23.0214028,18.2360208 C24.0763078,19.2930247 24.0763078,21.016418 23.0214028,22.0732612 C22.4935493,22.6015222 21.8019594,22.8700696 21.1013088,22.8700696 C20.4097189,22.8700696 19.7174876,22.6015222 19.1901954,22.0732612 C18.12647,21.0079857 18.12647,19.2930247 19.1901954,18.2360208 Z M16.3018756,16.0013917 C14.1917447,18.4352631 14.2951825,22.2119518 16.5264719,24.541745 C17.7717346,25.8495483 19.441012,26.4991536 21.1013088,26.4991536 C22.7270461,26.4991536 24.3443641,25.8757285 25.5812876,24.6369894 C26.1432995,24.0740357 26.5846341,23.4244304 26.886929,22.7402128 L35.0595567,6.87222571 C35.2758138,6.42186273 34.8087401,5.95455493 34.3590664,6.17106323 L18.515765,14.3558161 C17.6941161,14.7195276 16.9415862,15.2739687 16.3018756,16.0013917 L16.3018756,16.0013917 Z" id="Fill-9"></path>
            </g>
        </g>
    </g>
</svg>